<?xml version="1.0" encoding="utf-8"?>
<!-- Generator: Adobe Illustrator 18.1.1, SVG Export Plug-In . SVG Version: 6.00 Build 0)  -->
<svg version="1.1" id="Layer_1" xmlns="http://www.w3.org/2000/svg" xmlns:xlink="http://www.w3.org/1999/xlink" x="0px" y="0px"
	 viewBox="197.8 301.2 200.4 227.3" enable-background="new 197.8 301.2 200.4 227.3" xml:space="preserve">
<g id="LOGO">
	<path fill="#008FD5" d="M398.1,335.6c0-18.9-15.4-34.4-34.3-34.4H232.1c-18.9,0-34.3,15.5-34.3,34.4v109
		c0,18.9,15.5,34.4,34.4,34.4h113c34.4,0.6,49.7,30.6,53,49.5L398.1,335.6L398.1,335.6z"/>
	<path fill="#FFFFFF" d="M368.4,408.7c0,40.9-38.7,40.4-39.9,40.4c-1.3,0-19,0.3-30.5-12.3c-11.5,12.5-28.7,12.3-30.5,12.3
		s-39.9,0.5-40-40.4V345c0-1.6,1.3-3,3-3h13.1c1.6,0,3,1.3,3,3v60.9c0,10.6,3.7,26.3,21,26.3c17.3,0,20.9-15.6,21-26.2v-61
		c0-1.6,1.3-3,3-3h13.1c1.6,0,3,1.3,3,3v61c0.1,10.6,3.7,26.2,21,26.2c17.3,0,21-15.7,21-26.4v-60.9c0-1.6,1.3-3,3-3h13.1
		c1.6,0,3,1.3,3,3L368.4,408.7z"/>
</g>
</svg>
